# xmcd CD database file
#
# Track frame offsets:
#	150
#	14229
#	28905
#	45345
#	59851
#	74919
#	93950
#	108816
#	123588
#	145635
#	161265
#	177216
#	191603
#	205338
#	220066
#	234105
#	252004
#	272985
#
# Disc length: 3819 seconds
#
# Revision: 0
# Processed by: cddbd v1.5.2PL0 Copyright (c) Steve Scherf et al.
# Submitted via: CDex 1.70beta2
#
DISCID=080ee912
DTITLE=Michael Ballew - No Pain
DYEAR=2005
DGENRE=Country
TTITLE0=The Whiskey's Fine
TTITLE1=No Pain
TTITLE2=Every Time I Hold You
TTITLE3=Copano Bay
TTITLE4=Pick Me Up On Your Way Down
TTITLE5=No One Loves Me Like You
TTITLE6=Some Kind Of Angel
TTITLE7=I'm Leavin' These Honky Tonks
TTITLE8=Cowboy And The Preacher
TTITLE9=Loving You
TTITLE10=That's My Boy
TTITLE11=Women Love Love
TTITLE12=Red-Headed Women
TTITLE13=The Back Of My Hand
TTITLE14=I'll Ride The River With You
TTITLE15=My Sweet Angel
TTITLE16=I Can't Drive Home
TTITLE17=Hard-Headed Woman
EXTD=YEAR: 2005
EXTT0=
EXTT1=
EXTT2=
EXTT3=
EXTT4=
EXTT5=
EXTT6=
EXTT7=
EXTT8=
EXTT9=
EXTT10=
EXTT11=
EXTT12=
EXTT13=
EXTT14=
EXTT15=
EXTT16=
EXTT17=
PLAYORDER=
